# xmcd
#
# Track frame offsets: 
#        150
#        20755
#        42474
#        57873
#        78617
#        107581
#        124021
#        144046
#        164572
#        184027
#        203488
#        217798
#        235682
#        252473
#        276072
#
# Disc length: 3967 seconds
#
# Revision: 0
# Processed by: cddbd v1.5.1PL0 Copyright (c) Steve Scherf et al.
# Submitted via: ExactAudioCopy v0.95a5
#
DISCID=cb0f7d0f
DTITLE=Thad Beckman - Live At Big Barrel Blues
DYEAR=2004
DGENRE=Blues
TTITLE0=Goin Down Mama
TTITLE1=When The Sun Goes Down
TTITLE2=Key To The Highway
TTITLE3=Virginia Blues
TTITLE4=Dust Bowl Madonna
TTITLE5=I Am A Pilgrim
TTITLE6=The Land That I Love
TTITLE7=On That Train And Gone
TTITLE8=Jack 'O Diamonds
TTITLE9=Night Life
TTITLE10=I Hate My Life
TTITLE11=Let Me Down Easy
TTITLE12=Bright Lights, Big City
TTITLE13=Blues Gone By
TTITLE14=See That My Grave Is Kept Clean
EXTD=
EXTT0=
EXTT1=
EXTT2=
EXTT3=
EXTT4=
EXTT5=
EXTT6=
EXTT7=
EXTT8=
EXTT9=
EXTT10=
EXTT11=
EXTT12=
EXTT13=
EXTT14=
PLAYORDER=
